<svg width="895" height="133" viewBox="0 0 895 133" fill="none" xmlns="http://www.w3.org/2000/svg">
<path d="M383.612 102.284L403.016 98.8862L422.407 95.4073C471.343 86.7231 520.184 76.9333 569.363 68.6133C571.871 68.1952 574.352 67.6019 576.833 67.0895L576.604 67.103C606.365 62.1811 636.287 57.9199 666.358 54.7645L685.951 52.9036L692.491 52.4182L705.585 51.4741C709.954 51.2044 714.336 51.0292 718.705 50.8134C727.443 50.2875 736.208 50.2336 744.974 50.0179C753.725 49.856 762.544 49.9505 771.39 50.4225C780.236 50.8809 789.109 51.8518 797.928 53.4565C806.72 55.1691 815.485 57.4884 823.845 60.9809C828.052 62.6395 832.152 64.7565 836.116 66.968C838.045 68.1816 840.04 69.2875 841.888 70.6225L844.693 72.5642L847.403 74.6544C848.32 75.3421 849.196 76.0702 850.046 76.8254L852.622 79.0639L855.076 81.4505L856.303 82.6507L857.463 83.9183L859.768 86.4534L861.926 89.1234L862.991 90.4583L863.976 91.8608L865.944 94.679C866.686 95.9061 867.495 97.2411 868.345 98.6435C869.154 100.059 869.882 101.61 870.664 103.147C871.392 104.712 871.999 106.357 872.633 107.921C873.199 109.526 873.631 111.144 874.062 112.654C874.736 115.729 875.168 118.466 874.993 120.462C874.898 122.444 874.507 123.617 873.739 123.617C870.219 123.631 868.223 111.656 857.692 97.1063C851.381 88.2874 843.034 80.8168 833.622 75.1263C824.25 69.3818 813.678 65.4712 802.796 62.9226C791.9 60.347 780.654 59.093 769.354 58.5941C763.704 58.3379 758.04 58.2705 752.363 58.2975C746.686 58.3109 740.996 58.5941 735.332 58.7559C727.039 58.9447 718.746 59.5785 710.466 60.01C706.326 60.1988 702.187 60.6302 698.047 60.9134C693.907 61.2505 689.767 61.5202 685.641 61.8978C669.109 63.462 652.604 65.1881 636.139 67.3996C603.196 71.6877 570.401 77.1355 537.66 83.2036C478.881 94.0452 420.142 105.966 360.782 114.812C332.909 118.938 304.888 122.43 276.719 124.521C248.549 126.624 220.204 127.325 191.914 125.883C167.493 124.655 143.14 121.797 119.11 117.172L101.175 113.301C95.2017 111.98 89.255 110.429 83.3352 108.73C71.5091 105.305 59.791 101.003 48.7336 95.151C43.515 92.4136 38.3504 89.1504 33.442 85.6174C28.5335 82.0709 23.9083 78.3222 19.5528 74.4656L19.6606 74.6409C15.4534 69.0043 10.8552 63.0305 7.25475 56.3556C3.64086 49.7481 1.07877 42.4395 0.876503 35.5488V35.5353C0.593325 33.1755 0.175301 30.8157 0.148331 28.4154C0.107877 27.2153 0.0134847 26.0286 0 24.8554C0.0134847 23.6688 0.0269693 22.4956 0.040454 21.336C0 20.001 0.148331 18.7335 0.269693 17.5199C0.40454 16.3062 0.458478 15.1465 0.674233 14.0677C0.903472 12.9889 1.11923 11.9777 1.3215 11.0202C1.52377 10.0628 1.72604 9.15931 2.04967 8.35023C2.61602 6.71858 3.11496 5.31621 3.62737 4.17001C4.2207 3.05079 4.7466 2.16083 5.21856 1.50008C7.10642 -1.16988 7.90201 -0.158537 8.15822 3.60368C8.21216 4.42625 8.65715 4.53411 8.88639 5.01956C9.12911 5.49152 9.12912 6.31403 8.72458 8.59294C8.72458 8.60643 8.56276 8.90314 8.56276 8.90314L8.65715 8.79524C7.8211 15.2409 7.38959 22.199 8.0908 29.4268C8.81897 36.6276 10.7608 43.9902 13.8353 50.4898C17.5435 58.4862 22.843 65.7274 29.1134 71.8629C35.5456 77.958 42.8677 83.1901 50.7967 87.3973C66.6277 95.9466 84.3196 101.017 102.2 104.968C111.208 106.761 120.175 108.824 129.277 110.146L136.087 111.252C138.353 111.629 140.618 112.02 142.91 112.263L156.597 113.962C174.883 115.89 193.249 117.239 211.669 117.428C234.256 117.819 256.883 117.131 279.456 115.499C302.029 113.8 324.535 111.238 346.906 108.002C359.164 106.235 371.354 103.916 383.814 102.217L383.612 102.284Z" fill="#4633FF"/>
<path d="M870.489 115.648C870.812 114.408 871.042 113.127 871.473 111.927L876.476 98.3069C876.557 98.0777 876.476 97.7811 876.476 97.5249L876.449 97.5384C877.46 94.801 878.553 92.0771 879.483 89.2993C881.654 82.894 883.906 76.5024 887.075 70.4612C887.574 69.5173 888.181 67.8317 891.039 68.8835C894.02 69.9757 895.368 71.7287 894.64 73.4143C892.887 77.5136 890.702 81.4916 889.745 85.8606C888.342 92.2388 885.78 98.1992 883.785 104.362C881.991 109.89 879.901 115.325 878.121 120.867L877.433 123.092L876.988 124.562C876.773 125.249 876.557 125.964 876.274 126.625C875.208 129.295 873.361 131.29 870.691 131.924C868.682 132.369 866.74 131.978 864.852 130.845C863.908 130.293 863.005 129.497 862.101 128.742L860.524 127.393C856.977 124.292 853.93 120.624 850.545 117.32C849.749 116.538 848.967 115.648 847.417 115.837L847.403 115.877C847.349 113.99 844.517 114.974 844.908 112.614C844.612 112.291 844.409 111.846 844.018 111.657C842.211 110.78 842.549 109.621 845.313 107.396C845.92 106.91 846.459 106.034 847.147 105.953L847.133 106.02L847.16 105.966C849.695 105.036 850.181 106.951 851.327 107.868C854.132 110.133 856.896 112.425 859.661 114.745L867.657 121.474C867.94 121.662 868.183 121.973 868.547 121.932C868.83 121.878 868.965 121.582 869.019 121.325C869.046 121.19 869.059 121.056 869.059 120.934L869.531 119.141C869.828 117.968 869.801 116.673 870.462 115.608L870.489 115.648Z" fill="#4633FF"/>
</svg>
