<svg xmlns="http://www.w3.org/2000/svg" version="1.1" xmlns:xlink="http://www.w3.org/1999/xlink" xmlns:svgjs="http://svgjs.dev/svgjs" viewBox="0 0 2400 800"><g fill="#ffed00" transform="matrix(1,0,0,1,7.6488037109375,137.8185043334961)"><path d="M-10,10C54.58333333333333,15.833333333333334,172.91666666666666,42.375,300,38C427.08333333333337,33.625,475,-7.458333333333333,600,-11C725,-14.541666666666668,775,19.333333333333332,900,21C1025,22.666666666666668,1075,-6.125,1200,-3C1325,0.125,1375,41,1500,36C1625,31,1675,-26.166666666666668,1800,-27C1925,-27.833333333333332,1975,29.708333333333332,2100,32C2225,34.291666666666664,2285.4166666666665,-92.66666666666667,2400,-16C2514.5833333333335,60.66666666666667,3254.1666666666665,209.16666666666669,2650,400C2045.8333333333335,590.8333333333333,156.25,795.8333333333334,-500,900" transform="matrix(1,0,0,1,0,93)" opacity="0.05"></path><path d="M-10,10C54.58333333333333,15.833333333333334,172.91666666666666,42.375,300,38C427.08333333333337,33.625,475,-7.458333333333333,600,-11C725,-14.541666666666668,775,19.333333333333332,900,21C1025,22.666666666666668,1075,-6.125,1200,-3C1325,0.125,1375,41,1500,36C1625,31,1675,-26.166666666666668,1800,-27C1925,-27.833333333333332,1975,29.708333333333332,2100,32C2225,34.291666666666664,2285.4166666666665,-92.66666666666667,2400,-16C2514.5833333333335,60.66666666666667,3254.1666666666665,209.16666666666669,2650,400C2045.8333333333335,590.8333333333333,156.25,795.8333333333334,-500,900" transform="matrix(1,0,0,1,0,186)" opacity="0.37"></path><path d="M-10,10C54.58333333333333,15.833333333333334,172.91666666666666,42.375,300,38C427.08333333333337,33.625,475,-7.458333333333333,600,-11C725,-14.541666666666668,775,19.333333333333332,900,21C1025,22.666666666666668,1075,-6.125,1200,-3C1325,0.125,1375,41,1500,36C1625,31,1675,-26.166666666666668,1800,-27C1925,-27.833333333333332,1975,29.708333333333332,2100,32C2225,34.291666666666664,2285.4166666666665,-92.66666666666667,2400,-16C2514.5833333333335,60.66666666666667,3254.1666666666665,209.16666666666669,2650,400C2045.8333333333335,590.8333333333333,156.25,795.8333333333334,-500,900" transform="matrix(1,0,0,1,0,279)" opacity="0.68"></path><path d="M-10,10C54.58333333333333,15.833333333333334,172.91666666666666,42.375,300,38C427.08333333333337,33.625,475,-7.458333333333333,600,-11C725,-14.541666666666668,775,19.333333333333332,900,21C1025,22.666666666666668,1075,-6.125,1200,-3C1325,0.125,1375,41,1500,36C1625,31,1675,-26.166666666666668,1800,-27C1925,-27.833333333333332,1975,29.708333333333332,2100,32C2225,34.291666666666664,2285.4166666666665,-92.66666666666667,2400,-16C2514.5833333333335,60.66666666666667,3254.1666666666665,209.16666666666669,2650,400C2045.8333333333335,590.8333333333333,156.25,795.8333333333334,-500,900" transform="matrix(1,0,0,1,0,372)" opacity="1.00"></path></g></svg>